<?xml version="1.0" standalone="no"?>
<svg style="background: #fff" xmlns="http://www.w3.org/2000/svg" xmlns:xlink="http://www.w3.org/1999/xlink" version="1.1" width="438px" height="238px" viewBox="-0.5 -0.5 438 238"><defs><style>* {margin: 0px; padding: 0px;}</style><clipPath id="mx-clip-31-31-172-26-0"><rect x="31" y="31" width="172" height="26"/></clipPath><clipPath id="mx-clip-261-31-172-26-0"><rect x="261" y="31" width="172" height="26"/></clipPath><clipPath id="mx-clip-261-57-172-26-0"><rect x="261" y="57" width="172" height="26"/></clipPath><clipPath id="mx-clip-261-83-172-26-0"><rect x="261" y="83" width="172" height="26"/></clipPath><clipPath id="mx-clip-31-122-172-26-0"><rect x="31" y="122" width="172" height="26"/></clipPath><clipPath id="mx-clip-31-148-172-26-0"><rect x="31" y="148" width="172" height="26"/></clipPath><clipPath id="mx-clip-261-161-172-26-0"><rect x="261" y="161" width="172" height="26"/></clipPath><clipPath id="mx-clip-261-187-172-26-0"><rect x="261" y="187" width="172" height="26"/></clipPath><clipPath id="mx-clip-261-213-172-26-0"><rect x="261" y="213" width="172" height="26"/></clipPath></defs><g><path d="M 27 26 L 27 0 L 207 0 L 207 26" fill="#ffffff" stroke="#000000" stroke-miterlimit="10" pointer-events="none"/><path d="M 27 26 L 27 52 L 207 52 L 207 26" fill="none" stroke="#000000" stroke-miterlimit="10" pointer-events="none"/><path d="M 27 26 L 207 26" fill="none" stroke="#000000" stroke-miterlimit="10" pointer-events="none"/><g fill="#000000" font-family="Helvetica" font-weight="bold" text-anchor="middle" font-size="12px"><text x="116.5" y="18.5">Likeable</text></g><g fill="#000000" font-family="Helvetica" clip-path="url(#mx-clip-31-31-172-26-0)" font-size="12px"><text x="32.5" y="43.5">+ likeable_id: serial PK</text></g><path d="M 257 26 L 257 0 L 437 0 L 437 26" fill="#ffffff" stroke="#000000" stroke-miterlimit="10" pointer-events="none"/><path d="M 257 26 L 257 104 L 437 104 L 437 26" fill="none" stroke="#000000" stroke-miterlimit="10" pointer-events="none"/><path d="M 257 26 L 437 26" fill="none" stroke="#000000" stroke-miterlimit="10" pointer-events="none"/><g fill="#000000" font-family="Helvetica" font-weight="bold" text-anchor="middle" font-size="12px"><text x="346.5" y="18.5">Video</text></g><g fill="#000000" font-family="Helvetica" clip-path="url(#mx-clip-261-31-172-26-0)" font-size="12px"><text x="262.5" y="43.5">+ likeable_id: FK</text></g><g fill="#000000" font-family="Helvetica" clip-path="url(#mx-clip-261-57-172-26-0)" font-size="12px"><text x="262.5" y="69.5">+ source: text</text></g><g fill="#000000" font-family="Helvetica" clip-path="url(#mx-clip-261-83-172-26-0)" font-size="12px"><text x="262.5" y="95.5">+ views: bigint</text></g><path d="M 257 39 L 213.37 39" fill="none" stroke="#000000" stroke-miterlimit="10" pointer-events="none"/><path d="M 208.12 39 L 215.12 35.5 L 213.37 39 L 215.12 42.5 Z" fill="#000000" stroke="#000000" stroke-miterlimit="10" pointer-events="none"/><path d="M 27 117 L 27 91 L 207 91 L 207 117" fill="#ffffff" stroke="#000000" stroke-miterlimit="10" pointer-events="none"/><path d="M 27 117 L 27 169 L 207 169 L 207 117" fill="none" stroke="#000000" stroke-miterlimit="10" pointer-events="none"/><path d="M 27 117 L 207 117" fill="none" stroke="#000000" stroke-miterlimit="10" pointer-events="none"/><g fill="#000000" font-family="Helvetica" font-weight="bold" text-anchor="middle" font-size="12px"><text x="116.5" y="109.5">Likes</text></g><g fill="#000000" font-family="Helvetica" clip-path="url(#mx-clip-31-122-172-26-0)" font-size="12px"><text x="32.5" y="134.5">+ likeable_id: FK</text></g><g fill="#000000" font-family="Helvetica" clip-path="url(#mx-clip-31-148-172-26-0)" font-size="12px"><text x="32.5" y="160.5">+ channel_id: FK</text></g><path d="M 257 156 L 257 130 L 437 130 L 437 156" fill="#ffffff" stroke="#000000" stroke-miterlimit="10" pointer-events="none"/><path d="M 257 156 L 257 234 L 437 234 L 437 156" fill="none" stroke="#000000" stroke-miterlimit="10" pointer-events="none"/><path d="M 257 156 L 437 156" fill="none" stroke="#000000" stroke-miterlimit="10" pointer-events="none"/><g fill="#000000" font-family="Helvetica" font-weight="bold" text-anchor="middle" font-size="12px"><text x="346.5" y="148.5">Post</text></g><g fill="#000000" font-family="Helvetica" clip-path="url(#mx-clip-261-161-172-26-0)" font-size="12px"><text x="262.5" y="173.5">+ likeable_id: FK</text></g><g fill="#000000" font-family="Helvetica" clip-path="url(#mx-clip-261-187-172-26-0)" font-size="12px"><text x="262.5" y="199.5">+ source: text</text></g><g fill="#000000" font-family="Helvetica" clip-path="url(#mx-clip-261-213-172-26-0)" font-size="12px"><text x="262.5" y="225.5">+ views: bigint</text></g><path d="M 257 169 L 232 169 L 232 39 L 213.37 39" fill="none" stroke="#000000" stroke-miterlimit="10" pointer-events="none"/><path d="M 208.12 39 L 215.12 35.5 L 213.37 39 L 215.12 42.5 Z" fill="#000000" stroke="#000000" stroke-miterlimit="10" pointer-events="none"/><path d="M 27 130 L 7 130 L 7 85 L 227 85 L 227 39 L 213.37 39" fill="none" stroke="#000000" stroke-miterlimit="10" pointer-events="none"/><path d="M 208.12 39 L 215.12 35.5 L 213.37 39 L 215.12 42.5 Z" fill="#000000" stroke="#000000" stroke-miterlimit="10" pointer-events="none"/></g></svg>