<?xml version="1.0" standalone="no"?>
<svg style="background: #fff" xmlns="http://www.w3.org/2000/svg" xmlns:xlink="http://www.w3.org/1999/xlink" version="1.1" width="1585px" height="964px" viewBox="-0.5 -0.5 1585 964"><defs><style>* {margin: 0px; padding: 0px;}</style><clipPath id="mx-clip-228-411-172-26-0"><rect x="228" y="411" width="172" height="26"/></clipPath><clipPath id="mx-clip-228-437-172-26-0"><rect x="228" y="437" width="172" height="26"/></clipPath><clipPath id="mx-clip-228-463-172-26-0"><rect x="228" y="463" width="172" height="26"/></clipPath><clipPath id="mx-clip-228-489-172-26-0"><rect x="228" y="489" width="172" height="26"/></clipPath><clipPath id="mx-clip-228-515-172-26-0"><rect x="228" y="515" width="172" height="26"/></clipPath><clipPath id="mx-clip-729-88-182-26-0"><rect x="729" y="88" width="182" height="26"/></clipPath><clipPath id="mx-clip-729-114-182-26-0"><rect x="729" y="114" width="182" height="26"/></clipPath><clipPath id="mx-clip-729-140-182-26-0"><rect x="729" y="140" width="182" height="26"/></clipPath><clipPath id="mx-clip-729-166-182-26-0"><rect x="729" y="166" width="182" height="26"/></clipPath><clipPath id="mx-clip-729-192-182-26-0"><rect x="729" y="192" width="182" height="26"/></clipPath><clipPath id="mx-clip-729-218-182-26-0"><rect x="729" y="218" width="182" height="26"/></clipPath><clipPath id="mx-clip-729-244-182-26-0"><rect x="729" y="244" width="182" height="26"/></clipPath><clipPath id="mx-clip-729-674-182-26-0"><rect x="729" y="674" width="182" height="26"/></clipPath><clipPath id="mx-clip-729-700-182-26-0"><rect x="729" y="700" width="182" height="26"/></clipPath><clipPath id="mx-clip-729-726-182-26-0"><rect x="729" y="726" width="182" height="26"/></clipPath><clipPath id="mx-clip-729-752-182-26-0"><rect x="729" y="752" width="182" height="26"/></clipPath><clipPath id="mx-clip-970-237-152-26-0"><rect x="970" y="237" width="152" height="26"/></clipPath><clipPath id="mx-clip-970-263-152-26-0"><rect x="970" y="263" width="152" height="26"/></clipPath><clipPath id="mx-clip-1205-398-166-26-0"><rect x="1205" y="398" width="166" height="26"/></clipPath><clipPath id="mx-clip-1205-424-166-26-0"><rect x="1205" y="424" width="166" height="26"/></clipPath><clipPath id="mx-clip-1428-398-152-26-0"><rect x="1428" y="398" width="152" height="26"/></clipPath><clipPath id="mx-clip-1428-424-152-26-0"><rect x="1428" y="424" width="152" height="26"/></clipPath><clipPath id="mx-clip-970-88-152-26-0"><rect x="970" y="88" width="152" height="26"/></clipPath><clipPath id="mx-clip-970-114-152-26-0"><rect x="970" y="114" width="152" height="26"/></clipPath><clipPath id="mx-clip-485-913-172-26-0"><rect x="485" y="913" width="172" height="26"/></clipPath><clipPath id="mx-clip-485-939-172-26-0"><rect x="485" y="939" width="172" height="26"/></clipPath><clipPath id="mx-clip-485-31-172-26-0"><rect x="485" y="31" width="172" height="26"/></clipPath><clipPath id="mx-clip-485-57-172-26-0"><rect x="485" y="57" width="172" height="26"/></clipPath><clipPath id="mx-clip-485-577-172-26-0"><rect x="485" y="577" width="172" height="26"/></clipPath><clipPath id="mx-clip-485-603-172-26-0"><rect x="485" y="603" width="172" height="26"/></clipPath><clipPath id="mx-clip-4-411-172-26-0"><rect x="4" y="411" width="172" height="26"/></clipPath><clipPath id="mx-clip-4-437-172-26-0"><rect x="4" y="437" width="172" height="26"/></clipPath><clipPath id="mx-clip-4-463-172-26-0"><rect x="4" y="463" width="172" height="26"/></clipPath><clipPath id="mx-clip-970-674-152-26-0"><rect x="970" y="674" width="152" height="26"/></clipPath><clipPath id="mx-clip-970-700-152-26-0"><rect x="970" y="700" width="152" height="26"/></clipPath><clipPath id="mx-clip-485-140-172-26-0"><rect x="485" y="140" width="172" height="26"/></clipPath><clipPath id="mx-clip-485-166-172-26-0"><rect x="485" y="166" width="172" height="26"/></clipPath><clipPath id="mx-clip-485-250-172-26-0"><rect x="485" y="250" width="172" height="26"/></clipPath><clipPath id="mx-clip-485-276-172-26-0"><rect x="485" y="276" width="172" height="26"/></clipPath><clipPath id="mx-clip-485-687-172-26-0"><rect x="485" y="687" width="172" height="26"/></clipPath><clipPath id="mx-clip-485-713-172-26-0"><rect x="485" y="713" width="172" height="26"/></clipPath><clipPath id="mx-clip-485-796-172-26-0"><rect x="485" y="796" width="172" height="26"/></clipPath><clipPath id="mx-clip-485-822-172-26-0"><rect x="485" y="822" width="172" height="26"/></clipPath><clipPath id="mx-clip-1205-809-182-26-0"><rect x="1205" y="809" width="182" height="26"/></clipPath><clipPath id="mx-clip-1205-835-182-26-0"><rect x="1205" y="835" width="182" height="26"/></clipPath><clipPath id="mx-clip-1205-861-182-26-0"><rect x="1205" y="861" width="182" height="26"/></clipPath><clipPath id="mx-clip-1205-887-182-26-0"><rect x="1205" y="887" width="182" height="26"/></clipPath><clipPath id="mx-clip-1205-913-182-26-0"><rect x="1205" y="913" width="182" height="26"/></clipPath><clipPath id="mx-clip-734-359-172-26-0"><rect x="734" y="359" width="172" height="26"/></clipPath><clipPath id="mx-clip-734-385-172-26-0"><rect x="734" y="385" width="172" height="26"/></clipPath><clipPath id="mx-clip-734-468-172-26-0"><rect x="734" y="468" width="172" height="26"/></clipPath><clipPath id="mx-clip-734-494-172-26-0"><rect x="734" y="494" width="172" height="26"/></clipPath><clipPath id="mx-clip-970-783-152-26-0"><rect x="970" y="783" width="152" height="26"/></clipPath><clipPath id="mx-clip-970-809-152-26-0"><rect x="970" y="809" width="152" height="26"/></clipPath></defs><g><path d="M 224 406 L 224 380 L 404 380 L 404 406" fill="#ffffff" stroke="#000000" stroke-miterlimit="10" pointer-events="none"/><path d="M 224 406 L 224 536 L 404 536 L 404 406" fill="none" stroke="#000000" stroke-miterlimit="10" pointer-events="none"/><path d="M 224 406 L 404 406" fill="none" stroke="#000000" stroke-miterlimit="10" pointer-events="none"/><g fill="#000000" font-family="Helvetica" font-weight="bold" text-anchor="middle" font-size="12px"><text x="313.5" y="398.33">Channel</text></g><g fill="#000000" font-family="Helvetica" clip-path="url(#mx-clip-228-411-172-26-0)" font-size="12px"><text x="229.5" y="423.5">+ channel_id : varchar(30) PK</text></g><g fill="#000000" font-family="Helvetica" clip-path="url(#mx-clip-228-437-172-26-0)" font-size="12px"><text x="229.5" y="449.5">+ channel_name : varchar(30)</text></g><g fill="#000000" font-family="Helvetica" clip-path="url(#mx-clip-228-463-172-26-0)" font-size="12px"><text x="229.5" y="475.5">+ user_id : FK</text></g><g fill="#000000" font-family="Helvetica" clip-path="url(#mx-clip-228-489-172-26-0)" font-size="12px"><text x="229.5" y="501.5">+ createdAt: date</text></g><g fill="#000000" font-family="Helvetica" clip-path="url(#mx-clip-228-515-172-26-0)" font-size="12px"><text x="229.5" y="527.5">+ updatedAt: date</text></g><path d="M 725 83 L 725 57 L 915 57 L 915 83" fill="#ffffff" stroke="#000000" stroke-miterlimit="10" pointer-events="none"/><path d="M 725 83 L 725 265 L 915 265 L 915 83" fill="none" stroke="#000000" stroke-miterlimit="10" pointer-events="none"/><path d="M 725 83 L 915 83" fill="none" stroke="#000000" stroke-miterlimit="10" pointer-events="none"/><g fill="#000000" font-family="Helvetica" font-weight="bold" text-anchor="middle" font-size="12px"><text x="819.5" y="75.33">Video</text></g><g fill="#000000" font-family="Helvetica" clip-path="url(#mx-clip-729-88-182-26-0)" font-size="12px"><text x="730.5" y="100.5">+ video_id: varchar(30) PK</text></g><g fill="#000000" font-family="Helvetica" clip-path="url(#mx-clip-729-114-182-26-0)" font-size="12px"><text x="730.5" y="126.5">+ source: varchar(30)</text></g><g fill="#000000" font-family="Helvetica" clip-path="url(#mx-clip-729-140-182-26-0)" font-size="12px"><text x="730.5" y="152.5">+ views: bigint</text></g><g fill="#000000" font-family="Helvetica" clip-path="url(#mx-clip-729-166-182-26-0)" font-size="12px"><text x="730.5" y="178.5">+ description: text</text></g><g fill="#000000" font-family="Helvetica" clip-path="url(#mx-clip-729-192-182-26-0)" font-size="12px"><text x="730.5" y="204.5">+ createdAt: date</text></g><g fill="#000000" font-family="Helvetica" clip-path="url(#mx-clip-729-218-182-26-0)" font-size="12px"><text x="730.5" y="230.5">+ updatedAt: date</text></g><g fill="#000000" font-family="Helvetica" clip-path="url(#mx-clip-729-244-182-26-0)" font-size="12px"><text x="730.5" y="256.5">+ video_type: Video_Type</text></g><path d="M 725 669 L 725 643 L 915 643 L 915 669" fill="#ffffff" stroke="#000000" stroke-miterlimit="10" pointer-events="none"/><path d="M 725 669 L 725 773 L 915 773 L 915 669" fill="none" stroke="#000000" stroke-miterlimit="10" pointer-events="none"/><path d="M 725 669 L 915 669" fill="none" stroke="#000000" stroke-miterlimit="10" pointer-events="none"/><g fill="#000000" font-family="Helvetica" font-weight="bold" text-anchor="middle" font-size="12px"><text x="819.5" y="661.33">Post</text></g><g fill="#000000" font-family="Helvetica" clip-path="url(#mx-clip-729-674-182-26-0)" font-size="12px"><text x="730.5" y="686.5">+ post_id: varchar(30) PK</text></g><g fill="#000000" font-family="Helvetica" clip-path="url(#mx-clip-729-700-182-26-0)" font-size="12px"><text x="730.5" y="712.5">+ createdAt : date</text></g><g fill="#000000" font-family="Helvetica" clip-path="url(#mx-clip-729-726-182-26-0)" font-size="12px"><text x="730.5" y="738.5">+ updatedAt : date</text></g><g fill="#000000" font-family="Helvetica" clip-path="url(#mx-clip-729-752-182-26-0)" font-size="12px"><text x="730.5" y="764.5">+ content_text: text</text></g><path d="M 966.5 232 L 966.5 206 L 1126.5 206 L 1126.5 232" fill="#ffffff" stroke="#000000" stroke-miterlimit="10" pointer-events="none"/><path d="M 966.5 232 L 966.5 284 L 1126.5 284 L 1126.5 232" fill="none" stroke="#000000" stroke-miterlimit="10" pointer-events="none"/><path d="M 966.5 232 L 1126.5 232" fill="none" stroke="#000000" stroke-miterlimit="10" pointer-events="none"/><g fill="#000000" font-family="Helvetica" font-weight="bold" text-anchor="middle" font-size="12px"><text x="1046" y="224.33">Video_Type</text></g><g fill="#000000" font-family="Helvetica" clip-path="url(#mx-clip-970-237-152-26-0)" font-size="12px"><text x="972" y="249.5">+ original: 1</text></g><g fill="#000000" font-family="Helvetica" clip-path="url(#mx-clip-970-263-152-26-0)" font-size="12px"><text x="972" y="275.5">+ shorts: 2</text></g><path d="M 1201 393 L 1201 367 L 1375 367 L 1375 393" fill="#ffffff" stroke="#000000" stroke-miterlimit="10" pointer-events="none"/><path d="M 1201 393 L 1201 445 L 1375 445 L 1375 393" fill="none" stroke="#000000" stroke-miterlimit="10" pointer-events="none"/><path d="M 1201 393 L 1375 393" fill="none" stroke="#000000" stroke-miterlimit="10" pointer-events="none"/><g fill="#000000" font-family="Helvetica" font-weight="bold" text-anchor="middle" font-size="12px"><text x="1287.5" y="385.33">Comment</text></g><g fill="#000000" font-family="Helvetica" clip-path="url(#mx-clip-1205-398-166-26-0)" font-size="12px"><text x="1206.5" y="410.5">+ comment_id: varchar(30) PK</text></g><g fill="#000000" font-family="Helvetica" clip-path="url(#mx-clip-1205-424-166-26-0)" font-size="12px"><text x="1206.5" y="436.5">+ content_text : text</text></g><path d="M 915 252 L 940.83 252 L 940.83 226.17 L 964.43 226.17" fill="none" stroke="#000000" stroke-miterlimit="10" pointer-events="none"/><path d="M 958.55 228.5 L 965.55 226.17 L 958.55 223.83" fill="none" stroke="#000000" stroke-miterlimit="10" pointer-events="none"/><path d="M 1424 393 L 1424 367 L 1584 367 L 1584 393" fill="#ffffff" stroke="#000000" stroke-miterlimit="10" pointer-events="none"/><path d="M 1424 393 L 1424 445 L 1584 445 L 1584 393" fill="none" stroke="#000000" stroke-miterlimit="10" pointer-events="none"/><path d="M 1424 393 L 1584 393" fill="none" stroke="#000000" stroke-miterlimit="10" pointer-events="none"/><g fill="#000000" font-family="Helvetica" font-weight="bold" text-anchor="middle" font-size="12px"><text x="1503.5" y="385.33">parent_child_comment</text></g><g fill="#000000" font-family="Helvetica" clip-path="url(#mx-clip-1428-398-152-26-0)" font-size="12px"><text x="1429.5" y="410.5">+ parent_comment_id: FK</text></g><g fill="#000000" font-family="Helvetica" clip-path="url(#mx-clip-1428-424-152-26-0)" font-size="12px"><text x="1429.5" y="436.5">+ child_comment_id: FK</text></g><path d="M 966.5 83 L 966.5 57 L 1126.5 57 L 1126.5 83" fill="#ffffff" stroke="#000000" stroke-miterlimit="10" pointer-events="none"/><path d="M 966.5 83 L 966.5 135 L 1126.5 135 L 1126.5 83" fill="none" stroke="#000000" stroke-miterlimit="10" pointer-events="none"/><path d="M 966.5 83 L 1126.5 83" fill="none" stroke="#000000" stroke-miterlimit="10" pointer-events="none"/><g fill="#000000" font-family="Helvetica" font-weight="bold" text-anchor="middle" font-size="12px"><text x="1046" y="75.33">Video_Comment</text></g><g fill="#000000" font-family="Helvetica" clip-path="url(#mx-clip-970-88-152-26-0)" font-size="12px"><text x="972" y="100.5">+ video_id: FK</text></g><g fill="#000000" font-family="Helvetica" clip-path="url(#mx-clip-970-114-152-26-0)" font-size="12px"><text x="972" y="126.5">+ comment_id: FK</text></g><path d="M 481.5 908 L 481.5 882 L 661.5 882 L 661.5 908" fill="#ffffff" stroke="#000000" stroke-miterlimit="10" pointer-events="none"/><path d="M 481.5 908 L 481.5 960 L 661.5 960 L 661.5 908" fill="none" stroke="#000000" stroke-miterlimit="10" pointer-events="none"/><path d="M 481.5 908 L 661.5 908" fill="none" stroke="#000000" stroke-miterlimit="10" pointer-events="none"/><g fill="#000000" font-family="Helvetica" font-weight="bold" text-anchor="middle" font-size="12px"><text x="571" y="900.33">Channel_Subscriber</text></g><g fill="#000000" font-family="Helvetica" clip-path="url(#mx-clip-485-913-172-26-0)" font-size="12px"><text x="487" y="925.5">+ subscribed_channel_id: FK</text></g><g fill="#000000" font-family="Helvetica" clip-path="url(#mx-clip-485-939-172-26-0)" font-size="12px"><text x="487" y="951.5">+ subscriber_channel_id : FK</text></g><path d="M 481.5 26 L 481.5 0 L 661.5 0 L 661.5 26" fill="#ffffff" stroke="#000000" stroke-miterlimit="10" pointer-events="none"/><path d="M 481.5 26 L 481.5 78 L 661.5 78 L 661.5 26" fill="none" stroke="#000000" stroke-miterlimit="10" pointer-events="none"/><path d="M 481.5 26 L 661.5 26" fill="none" stroke="#000000" stroke-miterlimit="10" pointer-events="none"/><g fill="#000000" font-family="Helvetica" font-weight="bold" text-anchor="middle" font-size="12px"><text x="571" y="18.33">Channel_Videos</text></g><g fill="#000000" font-family="Helvetica" clip-path="url(#mx-clip-485-31-172-26-0)" font-size="12px"><text x="487" y="43.5">+ channel_id: FK</text></g><g fill="#000000" font-family="Helvetica" clip-path="url(#mx-clip-485-57-172-26-0)" font-size="12px"><text x="487" y="69.5">+ video_id: FK</text></g><path d="M 481.5 572 L 481.5 546 L 661.5 546 L 661.5 572" fill="#ffffff" stroke="#000000" stroke-miterlimit="10" pointer-events="none"/><path d="M 481.5 572 L 481.5 624 L 661.5 624 L 661.5 572" fill="none" stroke="#000000" stroke-miterlimit="10" pointer-events="none"/><path d="M 481.5 572 L 661.5 572" fill="none" stroke="#000000" stroke-miterlimit="10" pointer-events="none"/><g fill="#000000" font-family="Helvetica" font-weight="bold" text-anchor="middle" font-size="12px"><text x="571" y="564.33">Channel_Posts</text></g><g fill="#000000" font-family="Helvetica" clip-path="url(#mx-clip-485-577-172-26-0)" font-size="12px"><text x="487" y="589.5">+ channel_id: FK</text></g><g fill="#000000" font-family="Helvetica" clip-path="url(#mx-clip-485-603-172-26-0)" font-size="12px"><text x="487" y="615.5">+ post_id: FK</text></g><path d="M 481.5 947 L 442.5 947 L 442.5 418.67 L 410.37 418.67" fill="none" stroke="#000000" stroke-miterlimit="10" pointer-events="none"/><path d="M 405.12 418.67 L 412.12 415.17 L 410.37 418.67 L 412.12 422.17 Z" fill="#000000" stroke="#000000" stroke-miterlimit="10" pointer-events="none"/><path d="M 481.5 921.17 L 442.5 921.17 L 442.5 418.67 L 410.37 418.67" fill="none" stroke="#000000" stroke-miterlimit="10" pointer-events="none"/><path d="M 405.12 418.67 L 412.12 415.17 L 410.37 418.67 L 412.12 422.17 Z" fill="#000000" stroke="#000000" stroke-miterlimit="10" pointer-events="none"/><path d="M 481.5 38.67 L 442.5 38.67 L 442.5 418.67 L 410.37 418.67" fill="none" stroke="#000000" stroke-miterlimit="10" pointer-events="none"/><path d="M 405.12 418.67 L 412.12 415.17 L 410.37 418.67 L 412.12 422.17 Z" fill="#000000" stroke="#000000" stroke-miterlimit="10" pointer-events="none"/><path d="M 661.5 65.33 L 693.33 65.33 L 693.33 96.17 L 718.63 96.17" fill="none" stroke="#000000" stroke-miterlimit="10" pointer-events="none"/><path d="M 723.88 96.17 L 716.88 99.67 L 718.63 96.17 L 716.88 92.67 Z" fill="#000000" stroke="#000000" stroke-miterlimit="10" pointer-events="none"/><path d="M 481.5 585.33 L 442.5 585.33 L 442.5 418.67 L 410.37 418.67" fill="none" stroke="#000000" stroke-miterlimit="10" pointer-events="none"/><path d="M 405.12 418.67 L 412.12 415.17 L 410.37 418.67 L 412.12 422.17 Z" fill="#000000" stroke="#000000" stroke-miterlimit="10" pointer-events="none"/><path d="M 661.5 611.17 L 693.33 611.17 L 693.33 682 L 718.63 682" fill="none" stroke="#000000" stroke-miterlimit="10" pointer-events="none"/><path d="M 723.88 682 L 716.88 685.5 L 718.63 682 L 716.88 678.5 Z" fill="#000000" stroke="#000000" stroke-miterlimit="10" pointer-events="none"/><path d="M 0 406 L 0 380 L 180 380 L 180 406" fill="#ffffff" stroke="#000000" stroke-miterlimit="10" pointer-events="none"/><path d="M 0 406 L 0 484 L 180 484 L 180 406" fill="none" stroke="#000000" stroke-miterlimit="10" pointer-events="none"/><path d="M 0 406 L 180 406" fill="none" stroke="#000000" stroke-miterlimit="10" pointer-events="none"/><g fill="#000000" font-family="Helvetica" font-weight="bold" text-anchor="middle" font-size="12px"><text x="89.5" y="398.33">User</text></g><g fill="#000000" font-family="Helvetica" clip-path="url(#mx-clip-4-411-172-26-0)" font-size="12px"><text x="5.5" y="423.5">+ user_id : varchar(30) PK</text></g><g fill="#000000" font-family="Helvetica" clip-path="url(#mx-clip-4-437-172-26-0)" font-size="12px"><text x="5.5" y="449.5">+ email : varchar(30)</text></g><g fill="#000000" font-family="Helvetica" clip-path="url(#mx-clip-4-463-172-26-0)" font-size="12px"><text x="5.5" y="475.5">+ password : varchar(30)</text></g><path d="M 966.5 669 L 966.5 643 L 1126.5 643 L 1126.5 669" fill="#ffffff" stroke="#000000" stroke-miterlimit="10" pointer-events="none"/><path d="M 966.5 669 L 966.5 721 L 1126.5 721 L 1126.5 669" fill="none" stroke="#000000" stroke-miterlimit="10" pointer-events="none"/><path d="M 966.5 669 L 1126.5 669" fill="none" stroke="#000000" stroke-miterlimit="10" pointer-events="none"/><g fill="#000000" font-family="Helvetica" font-weight="bold" text-anchor="middle" font-size="12px"><text x="1046" y="661.33">Post_Comment</text></g><g fill="#000000" font-family="Helvetica" clip-path="url(#mx-clip-970-674-152-26-0)" font-size="12px"><text x="972" y="686.5">+ post_id: FK</text></g><g fill="#000000" font-family="Helvetica" clip-path="url(#mx-clip-970-700-152-26-0)" font-size="12px"><text x="972" y="712.5">+ comment_id: FK</text></g><path d="M 966.5 682 L 921.37 682" fill="none" stroke="#000000" stroke-miterlimit="10" pointer-events="none"/><path d="M 916.12 682 L 923.12 678.5 L 921.37 682 L 923.12 685.5 Z" fill="#000000" stroke="#000000" stroke-miterlimit="10" pointer-events="none"/><path d="M 1126.5 707.83 L 1164.17 707.83 L 1164.17 406.17 L 1194.63 406.17" fill="none" stroke="#000000" stroke-miterlimit="10" pointer-events="none"/><path d="M 1199.88 406.17 L 1192.88 409.67 L 1194.63 406.17 L 1192.88 402.67 Z" fill="#000000" stroke="#000000" stroke-miterlimit="10" pointer-events="none"/><path d="M 966.5 96 L 921.37 96" fill="none" stroke="#000000" stroke-miterlimit="10" pointer-events="none"/><path d="M 916.12 96 L 923.12 92.5 L 921.37 96 L 923.12 99.5 Z" fill="#000000" stroke="#000000" stroke-miterlimit="10" pointer-events="none"/><path d="M 481.5 135 L 481.5 109 L 661.5 109 L 661.5 135" fill="#ffffff" stroke="#000000" stroke-miterlimit="10" pointer-events="none"/><path d="M 481.5 135 L 481.5 187 L 661.5 187 L 661.5 135" fill="none" stroke="#000000" stroke-miterlimit="10" pointer-events="none"/><path d="M 481.5 135 L 661.5 135" fill="none" stroke="#000000" stroke-miterlimit="10" pointer-events="none"/><g fill="#000000" font-family="Helvetica" font-weight="bold" text-anchor="middle" font-size="12px"><text x="571" y="127.33">Video_Likes</text></g><g fill="#000000" font-family="Helvetica" clip-path="url(#mx-clip-485-140-172-26-0)" font-size="12px"><text x="487" y="152.5">+ channel_id: FK</text></g><g fill="#000000" font-family="Helvetica" clip-path="url(#mx-clip-485-166-172-26-0)" font-size="12px"><text x="487" y="178.5">+ video_id: FK</text></g><path d="M 661.5 173.67 L 693.33 173.67 L 693.33 96.17 L 718.63 96.17" fill="none" stroke="#000000" stroke-miterlimit="10" pointer-events="none"/><path d="M 723.88 96.17 L 716.88 99.67 L 718.63 96.17 L 716.88 92.67 Z" fill="#000000" stroke="#000000" stroke-miterlimit="10" pointer-events="none"/><path d="M 481.5 245 L 481.5 219 L 661.5 219 L 661.5 245" fill="#ffffff" stroke="#000000" stroke-miterlimit="10" pointer-events="none"/><path d="M 481.5 245 L 481.5 297 L 661.5 297 L 661.5 245" fill="none" stroke="#000000" stroke-miterlimit="10" pointer-events="none"/><path d="M 481.5 245 L 661.5 245" fill="none" stroke="#000000" stroke-miterlimit="10" pointer-events="none"/><g fill="#000000" font-family="Helvetica" font-weight="bold" text-anchor="middle" font-size="12px"><text x="571" y="237.33">Video_Dislikes</text></g><g fill="#000000" font-family="Helvetica" clip-path="url(#mx-clip-485-250-172-26-0)" font-size="12px"><text x="487" y="262.5">+ channel_id: FK</text></g><g fill="#000000" font-family="Helvetica" clip-path="url(#mx-clip-485-276-172-26-0)" font-size="12px"><text x="487" y="288.5">+ video_id: FK</text></g><path d="M 661.5 283.67 L 693.33 283.67 L 693.33 96.17 L 718.63 96.17" fill="none" stroke="#000000" stroke-miterlimit="10" pointer-events="none"/><path d="M 723.88 96.17 L 716.88 99.67 L 718.63 96.17 L 716.88 92.67 Z" fill="#000000" stroke="#000000" stroke-miterlimit="10" pointer-events="none"/><path d="M 481.5 257.83 L 442.5 257.83 L 442.5 418.67 L 410.37 418.67" fill="none" stroke="#000000" stroke-miterlimit="10" pointer-events="none"/><path d="M 405.12 418.67 L 412.12 415.17 L 410.37 418.67 L 412.12 422.17 Z" fill="#000000" stroke="#000000" stroke-miterlimit="10" pointer-events="none"/><path d="M 481.5 147.83 L 442.5 147.83 L 442.5 418.67 L 410.37 418.67" fill="none" stroke="#000000" stroke-miterlimit="10" pointer-events="none"/><path d="M 405.12 418.67 L 412.12 415.17 L 410.37 418.67 L 412.12 422.17 Z" fill="#000000" stroke="#000000" stroke-miterlimit="10" pointer-events="none"/><path d="M 481.5 682 L 481.5 656 L 661.5 656 L 661.5 682" fill="#ffffff" stroke="#000000" stroke-miterlimit="10" pointer-events="none"/><path d="M 481.5 682 L 481.5 734 L 661.5 734 L 661.5 682" fill="none" stroke="#000000" stroke-miterlimit="10" pointer-events="none"/><path d="M 481.5 682 L 661.5 682" fill="none" stroke="#000000" stroke-miterlimit="10" pointer-events="none"/><g fill="#000000" font-family="Helvetica" font-weight="bold" text-anchor="middle" font-size="12px"><text x="571" y="674.33">Post_Likes</text></g><g fill="#000000" font-family="Helvetica" clip-path="url(#mx-clip-485-687-172-26-0)" font-size="12px"><text x="487" y="699.5">+ channel_id: FK</text></g><g fill="#000000" font-family="Helvetica" clip-path="url(#mx-clip-485-713-172-26-0)" font-size="12px"><text x="487" y="725.5">+ post_id: FK</text></g><path d="M 481.5 791 L 481.5 765 L 661.5 765 L 661.5 791" fill="#ffffff" stroke="#000000" stroke-miterlimit="10" pointer-events="none"/><path d="M 481.5 791 L 481.5 843 L 661.5 843 L 661.5 791" fill="none" stroke="#000000" stroke-miterlimit="10" pointer-events="none"/><path d="M 481.5 791 L 661.5 791" fill="none" stroke="#000000" stroke-miterlimit="10" pointer-events="none"/><g fill="#000000" font-family="Helvetica" font-weight="bold" text-anchor="middle" font-size="12px"><text x="571" y="783.33">Post_Dislikes</text></g><g fill="#000000" font-family="Helvetica" clip-path="url(#mx-clip-485-796-172-26-0)" font-size="12px"><text x="487" y="808.5">+ channel_id: FK</text></g><g fill="#000000" font-family="Helvetica" clip-path="url(#mx-clip-485-822-172-26-0)" font-size="12px"><text x="487" y="834.5">+ post_id: FK</text></g><path d="M 661.5 830.33 L 693.33 830.33 L 693.33 682 L 718.63 682" fill="none" stroke="#000000" stroke-miterlimit="10" pointer-events="none"/><path d="M 723.88 682 L 716.88 685.5 L 718.63 682 L 716.88 678.5 Z" fill="#000000" stroke="#000000" stroke-miterlimit="10" pointer-events="none"/><path d="M 661.5 721.17 L 693.33 721.17 L 693.33 682 L 718.63 682" fill="none" stroke="#000000" stroke-miterlimit="10" pointer-events="none"/><path d="M 723.88 682 L 716.88 685.5 L 718.63 682 L 716.88 678.5 Z" fill="#000000" stroke="#000000" stroke-miterlimit="10" pointer-events="none"/><path d="M 481.5 803.67 L 442.5 803.67 L 442.5 418.67 L 410.37 418.67" fill="none" stroke="#000000" stroke-miterlimit="10" pointer-events="none"/><path d="M 405.12 418.67 L 412.12 415.17 L 410.37 418.67 L 412.12 422.17 Z" fill="#000000" stroke="#000000" stroke-miterlimit="10" pointer-events="none"/><path d="M 481.5 695.33 L 442.5 695.33 L 442.5 418.67 L 410.37 418.67" fill="none" stroke="#000000" stroke-miterlimit="10" pointer-events="none"/><path d="M 405.12 418.67 L 412.12 415.17 L 410.37 418.67 L 412.12 422.17 Z" fill="#000000" stroke="#000000" stroke-miterlimit="10" pointer-events="none"/><path d="M 1424 432 L 1399.17 432 L 1399.17 406.17 L 1381.37 406.17" fill="none" stroke="#000000" stroke-miterlimit="10" pointer-events="none"/><path d="M 1376.12 406.17 L 1383.12 402.67 L 1381.37 406.17 L 1383.12 409.67 Z" fill="#000000" stroke="#000000" stroke-miterlimit="10" pointer-events="none"/><path d="M 1424 406 L 1381.37 406" fill="none" stroke="#000000" stroke-miterlimit="10" pointer-events="none"/><path d="M 1376.12 406 L 1383.12 402.5 L 1381.37 406 L 1383.12 409.5 Z" fill="#000000" stroke="#000000" stroke-miterlimit="10" pointer-events="none"/><path d="M 1126.5 122 L 1164.17 122 L 1164.17 406.17 L 1194.63 406.17" fill="none" stroke="#000000" stroke-miterlimit="10" pointer-events="none"/><path d="M 1199.88 406.17 L 1192.88 409.67 L 1194.63 406.17 L 1192.88 402.67 Z" fill="#000000" stroke="#000000" stroke-miterlimit="10" pointer-events="none"/><path d="M 1201 804 L 1201 778 L 1391 778 L 1391 804" fill="#ffffff" stroke="#000000" stroke-miterlimit="10" pointer-events="none"/><path d="M 1201 804 L 1201 934 L 1391 934 L 1391 804" fill="none" stroke="#000000" stroke-miterlimit="10" pointer-events="none"/><path d="M 1201 804 L 1391 804" fill="none" stroke="#000000" stroke-miterlimit="10" pointer-events="none"/><g fill="#000000" font-family="Helvetica" font-weight="bold" text-anchor="middle" font-size="12px"><text x="1295.5" y="796.33">Image</text></g><g fill="#000000" font-family="Helvetica" clip-path="url(#mx-clip-1205-809-182-26-0)" font-size="12px"><text x="1206.5" y="821.5">+ image_id: PK</text></g><g fill="#000000" font-family="Helvetica" clip-path="url(#mx-clip-1205-835-182-26-0)" font-size="12px"><text x="1206.5" y="847.5">+ post_id: FK</text></g><g fill="#000000" font-family="Helvetica" clip-path="url(#mx-clip-1205-861-182-26-0)" font-size="12px"><text x="1206.5" y="873.5">+ source: string</text></g><g fill="#000000" font-family="Helvetica" clip-path="url(#mx-clip-1205-887-182-26-0)" font-size="12px"><text x="1206.5" y="899.5">+ createdAt: date</text></g><g fill="#000000" font-family="Helvetica" clip-path="url(#mx-clip-1205-913-182-26-0)" font-size="12px"><text x="1206.5" y="925.5">+ updatedAt: date</text></g><path d="M 730 354 L 730 328 L 910 328 L 910 354" fill="#ffffff" stroke="#000000" stroke-miterlimit="10" pointer-events="none"/><path d="M 730 354 L 730 406 L 910 406 L 910 354" fill="none" stroke="#000000" stroke-miterlimit="10" pointer-events="none"/><path d="M 730 354 L 910 354" fill="none" stroke="#000000" stroke-miterlimit="10" pointer-events="none"/><g fill="#000000" font-family="Helvetica" font-weight="bold" text-anchor="middle" font-size="12px"><text x="819.5" y="346.33">Comment_Likes</text></g><g fill="#000000" font-family="Helvetica" clip-path="url(#mx-clip-734-359-172-26-0)" font-size="12px"><text x="735.5" y="371.5">+ channel_id: FK</text></g><g fill="#000000" font-family="Helvetica" clip-path="url(#mx-clip-734-385-172-26-0)" font-size="12px"><text x="735.5" y="397.5">+ comment_id: FK</text></g><path d="M 730 463 L 730 437 L 910 437 L 910 463" fill="#ffffff" stroke="#000000" stroke-miterlimit="10" pointer-events="none"/><path d="M 730 463 L 730 515 L 910 515 L 910 463" fill="none" stroke="#000000" stroke-miterlimit="10" pointer-events="none"/><path d="M 730 463 L 910 463" fill="none" stroke="#000000" stroke-miterlimit="10" pointer-events="none"/><g fill="#000000" font-family="Helvetica" font-weight="bold" text-anchor="middle" font-size="12px"><text x="819.5" y="455.33">Comment_Dislikes</text></g><g fill="#000000" font-family="Helvetica" clip-path="url(#mx-clip-734-468-172-26-0)" font-size="12px"><text x="735.5" y="480.5">+ channel_id: FK</text></g><g fill="#000000" font-family="Helvetica" clip-path="url(#mx-clip-734-494-172-26-0)" font-size="12px"><text x="735.5" y="506.5">+ comment_id: FK</text></g><path d="M 910 392.83 L 1055.83 392.83 L 1055.83 406.17 L 1194.63 406.17" fill="none" stroke="#000000" stroke-miterlimit="10" pointer-events="none"/><path d="M 1199.88 406.17 L 1192.88 409.67 L 1194.63 406.17 L 1192.88 402.67 Z" fill="#000000" stroke="#000000" stroke-miterlimit="10" pointer-events="none"/><path d="M 910 502 L 1055.83 502 L 1055.83 406.17 L 1194.63 406.17" fill="none" stroke="#000000" stroke-miterlimit="10" pointer-events="none"/><path d="M 1199.88 406.17 L 1192.88 409.67 L 1194.63 406.17 L 1192.88 402.67 Z" fill="#000000" stroke="#000000" stroke-miterlimit="10" pointer-events="none"/><path d="M 730 367 L 566.67 367 L 566.67 418.67 L 410.37 418.67" fill="none" stroke="#000000" stroke-miterlimit="10" pointer-events="none"/><path d="M 405.12 418.67 L 412.12 415.17 L 410.37 418.67 L 412.12 422.17 Z" fill="#000000" stroke="#000000" stroke-miterlimit="10" pointer-events="none"/><path d="M 730 476.17 L 566.67 476.17 L 566.67 418.67 L 410.37 418.67" fill="none" stroke="#000000" stroke-miterlimit="10" pointer-events="none"/><path d="M 405.12 418.67 L 412.12 415.17 L 410.37 418.67 L 412.12 422.17 Z" fill="#000000" stroke="#000000" stroke-miterlimit="10" pointer-events="none"/><path d="M 966.5 778 L 966.5 752 L 1126.5 752 L 1126.5 778" fill="#ffffff" stroke="#000000" stroke-miterlimit="10" pointer-events="none"/><path d="M 966.5 778 L 966.5 830 L 1126.5 830 L 1126.5 778" fill="none" stroke="#000000" stroke-miterlimit="10" pointer-events="none"/><path d="M 966.5 778 L 1126.5 778" fill="none" stroke="#000000" stroke-miterlimit="10" pointer-events="none"/><g fill="#000000" font-family="Helvetica" font-weight="bold" text-anchor="middle" font-size="12px"><text x="1046" y="770.33">Post_Image</text></g><g fill="#000000" font-family="Helvetica" clip-path="url(#mx-clip-970-783-152-26-0)" font-size="12px"><text x="972" y="795.5">+ post_id: FK</text></g><g fill="#000000" font-family="Helvetica" clip-path="url(#mx-clip-970-809-152-26-0)" font-size="12px"><text x="972" y="821.5">+ image_id: FK</text></g><path d="M 1126.5 817 L 1194.63 817" fill="none" stroke="#000000" stroke-miterlimit="10" pointer-events="none"/><path d="M 1199.88 817 L 1192.88 820.5 L 1194.63 817 L 1192.88 813.5 Z" fill="#000000" stroke="#000000" stroke-miterlimit="10" pointer-events="none"/><path d="M 966.5 791.17 L 940.83 791.17 L 940.83 682 L 921.37 682" fill="none" stroke="#000000" stroke-miterlimit="10" pointer-events="none"/><path d="M 916.12 682 L 923.12 678.5 L 921.37 682 L 923.12 685.5 Z" fill="#000000" stroke="#000000" stroke-miterlimit="10" pointer-events="none"/><path d="M 224 471.17 L 201.67 471.17 L 201.67 418.67 L 186.37 418.67" fill="none" stroke="#000000" stroke-miterlimit="10" pointer-events="none"/><path d="M 181.12 418.67 L 188.12 415.17 L 186.37 418.67 L 188.12 422.17 Z" fill="#000000" stroke="#000000" stroke-miterlimit="10" pointer-events="none"/></g></svg>