<?xml version="1.0" standalone="no"?>
<svg style="background: #fff" xmlns="http://www.w3.org/2000/svg" xmlns:xlink="http://www.w3.org/1999/xlink" version="1.1" width="1224px" height="947px" viewBox="-0.5 -0.5 1224 947"><defs><style>* {margin: 0px; padding: 0px;}</style><clipPath id="mx-clip-228-422-172-26-0"><rect x="228" y="422" width="172" height="26"/></clipPath><clipPath id="mx-clip-228-448-172-26-0"><rect x="228" y="448" width="172" height="26"/></clipPath><clipPath id="mx-clip-228-474-172-26-0"><rect x="228" y="474" width="172" height="26"/></clipPath><clipPath id="mx-clip-228-500-172-26-0"><rect x="228" y="500" width="172" height="26"/></clipPath><clipPath id="mx-clip-821-99-166-26-0"><rect x="821" y="99" width="166" height="26"/></clipPath><clipPath id="mx-clip-821-125-166-26-0"><rect x="821" y="125" width="166" height="26"/></clipPath><clipPath id="mx-clip-821-151-166-26-0"><rect x="821" y="151" width="166" height="26"/></clipPath><clipPath id="mx-clip-821-177-166-26-0"><rect x="821" y="177" width="166" height="26"/></clipPath><clipPath id="mx-clip-821-203-166-26-0"><rect x="821" y="203" width="166" height="26"/></clipPath><clipPath id="mx-clip-821-229-166-26-0"><rect x="821" y="229" width="166" height="26"/></clipPath><clipPath id="mx-clip-821-255-166-26-0"><rect x="821" y="255" width="166" height="26"/></clipPath><clipPath id="mx-clip-821-281-166-26-0"><rect x="821" y="281" width="166" height="26"/></clipPath><clipPath id="mx-clip-821-813-166-26-0"><rect x="821" y="813" width="166" height="26"/></clipPath><clipPath id="mx-clip-821-839-166-26-0"><rect x="821" y="839" width="166" height="26"/></clipPath><clipPath id="mx-clip-821-865-166-26-0"><rect x="821" y="865" width="166" height="26"/></clipPath><clipPath id="mx-clip-821-891-166-26-0"><rect x="821" y="891" width="166" height="26"/></clipPath><clipPath id="mx-clip-821-917-166-26-0"><rect x="821" y="917" width="166" height="26"/></clipPath><clipPath id="mx-clip-1043-281-172-26-0"><rect x="1043" y="281" width="172" height="26"/></clipPath><clipPath id="mx-clip-1043-307-172-26-0"><rect x="1043" y="307" width="172" height="26"/></clipPath><clipPath id="mx-clip-821-443-166-26-0"><rect x="821" y="443" width="166" height="26"/></clipPath><clipPath id="mx-clip-821-469-166-26-0"><rect x="821" y="469" width="166" height="26"/></clipPath><clipPath id="mx-clip-821-495-166-26-0"><rect x="821" y="495" width="166" height="26"/></clipPath><clipPath id="mx-clip-821-521-166-26-0"><rect x="821" y="521" width="166" height="26"/></clipPath><clipPath id="mx-clip-1043-99-152-26-0"><rect x="1043" y="99" width="152" height="26"/></clipPath><clipPath id="mx-clip-1043-125-152-26-0"><rect x="1043" y="125" width="152" height="26"/></clipPath><clipPath id="mx-clip-486-539-172-26-0"><rect x="486" y="539" width="172" height="26"/></clipPath><clipPath id="mx-clip-486-565-172-26-0"><rect x="486" y="565" width="172" height="26"/></clipPath><clipPath id="mx-clip-4-422-172-26-0"><rect x="4" y="422" width="172" height="26"/></clipPath><clipPath id="mx-clip-4-448-172-26-0"><rect x="4" y="448" width="172" height="26"/></clipPath><clipPath id="mx-clip-4-474-172-26-0"><rect x="4" y="474" width="172" height="26"/></clipPath><clipPath id="mx-clip-4-500-172-26-0"><rect x="4" y="500" width="172" height="26"/></clipPath><clipPath id="mx-clip-4-526-172-26-0"><rect x="4" y="526" width="172" height="26"/></clipPath><clipPath id="mx-clip-4-552-172-26-0"><rect x="4" y="552" width="172" height="26"/></clipPath><clipPath id="mx-clip-1043-748-152-26-0"><rect x="1043" y="748" width="152" height="26"/></clipPath><clipPath id="mx-clip-1043-774-152-26-0"><rect x="1043" y="774" width="152" height="26"/></clipPath><clipPath id="mx-clip-486-31-172-26-0"><rect x="486" y="31" width="172" height="26"/></clipPath><clipPath id="mx-clip-486-57-172-26-0"><rect x="486" y="57" width="172" height="26"/></clipPath><clipPath id="mx-clip-486-141-172-26-0"><rect x="486" y="141" width="172" height="26"/></clipPath><clipPath id="mx-clip-486-167-172-26-0"><rect x="486" y="167" width="172" height="26"/></clipPath><clipPath id="mx-clip-486-787-172-26-0"><rect x="486" y="787" width="172" height="26"/></clipPath><clipPath id="mx-clip-486-813-172-26-0"><rect x="486" y="813" width="172" height="26"/></clipPath><clipPath id="mx-clip-486-896-172-26-0"><rect x="486" y="896" width="172" height="26"/></clipPath><clipPath id="mx-clip-486-922-172-26-0"><rect x="486" y="922" width="172" height="26"/></clipPath><clipPath id="mx-clip-821-612-166-26-0"><rect x="821" y="612" width="166" height="26"/></clipPath><clipPath id="mx-clip-821-638-166-26-0"><rect x="821" y="638" width="166" height="26"/></clipPath><clipPath id="mx-clip-821-664-166-26-0"><rect x="821" y="664" width="166" height="26"/></clipPath><clipPath id="mx-clip-821-690-166-26-0"><rect x="821" y="690" width="166" height="26"/></clipPath><clipPath id="mx-clip-821-716-166-26-0"><rect x="821" y="716" width="166" height="26"/></clipPath><clipPath id="mx-clip-486-242-172-26-0"><rect x="486" y="242" width="172" height="26"/></clipPath><clipPath id="mx-clip-486-268-172-26-0"><rect x="486" y="268" width="172" height="26"/></clipPath><clipPath id="mx-clip-486-343-172-26-0"><rect x="486" y="343" width="172" height="26"/></clipPath><clipPath id="mx-clip-486-369-172-26-0"><rect x="486" y="369" width="172" height="26"/></clipPath><clipPath id="mx-clip-1043-612-152-26-0"><rect x="1043" y="612" width="152" height="26"/></clipPath><clipPath id="mx-clip-1043-638-152-26-0"><rect x="1043" y="638" width="152" height="26"/></clipPath></defs><g><path d="M 224 417 L 224 391 L 404 391 L 404 417" fill="#ffffff" stroke="#000000" stroke-miterlimit="10" pointer-events="none"/><path d="M 224 417 L 224 521 L 404 521 L 404 417" fill="none" stroke="#000000" stroke-miterlimit="10" pointer-events="none"/><path d="M 224 417 L 404 417" fill="none" stroke="#000000" stroke-miterlimit="10" pointer-events="none"/><g fill="#000000" font-family="Helvetica" font-weight="bold" text-anchor="middle" font-size="12px"><text x="313.5" y="409.5">Channel</text></g><g fill="#000000" font-family="Helvetica" clip-path="url(#mx-clip-228-422-172-26-0)" font-size="12px"><text x="229.5" y="434.5">+ channel_id : serial PK</text></g><g fill="#000000" font-family="Helvetica" clip-path="url(#mx-clip-228-448-172-26-0)" font-size="12px"><text x="229.5" y="460.5">+ user_id : FK</text></g><g fill="#000000" font-family="Helvetica" clip-path="url(#mx-clip-228-474-172-26-0)" font-size="12px"><text x="229.5" y="486.5">+ channel_name : varchar(50)</text></g><g fill="#000000" font-family="Helvetica" clip-path="url(#mx-clip-228-500-172-26-0)" font-size="12px"><text x="229.5" y="512.5">+ updated_at: date</text></g><path d="M 817 94 L 817 68 L 991 68 L 991 94" fill="#ffffff" stroke="#000000" stroke-width="3" stroke-miterlimit="10" pointer-events="none"/><path d="M 817 94 L 817 302 L 991 302 L 991 94" fill="none" stroke="#000000" stroke-width="3" stroke-miterlimit="10" pointer-events="none"/><path d="M 817 94 L 991 94" fill="none" stroke="#000000" stroke-width="3" stroke-miterlimit="10" pointer-events="none"/><g fill="#000000" font-family="Helvetica" font-weight="bold" text-anchor="middle" font-size="12px"><text x="903.5" y="87.5">Video</text></g><g fill="#000000" font-family="Helvetica" clip-path="url(#mx-clip-821-99-166-26-0)" font-size="12px"><text x="822.5" y="111.5">+ video_id: serial PK</text></g><g fill="#000000" font-family="Helvetica" clip-path="url(#mx-clip-821-125-166-26-0)" font-size="12px"><text x="822.5" y="137.5">+ channel_id: FK cascade</text></g><g fill="#000000" font-family="Helvetica" clip-path="url(#mx-clip-821-151-166-26-0)" font-size="12px"><text x="822.5" y="163.5">+ source: text</text></g><g fill="#000000" font-family="Helvetica" clip-path="url(#mx-clip-821-177-166-26-0)" font-size="12px"><text x="822.5" y="189.5">+ views: bigint</text></g><g fill="#000000" font-family="Helvetica" clip-path="url(#mx-clip-821-203-166-26-0)" font-size="12px"><text x="822.5" y="215.5">+ description: text</text></g><g fill="#000000" font-family="Helvetica" clip-path="url(#mx-clip-821-229-166-26-0)" font-size="12px"><text x="822.5" y="241.5">+ created_at: date</text></g><g fill="#000000" font-family="Helvetica" clip-path="url(#mx-clip-821-255-166-26-0)" font-size="12px"><text x="822.5" y="267.5">+ updated_at: date</text></g><g fill="#000000" font-family="Helvetica" clip-path="url(#mx-clip-821-281-166-26-0)" font-size="12px"><text x="822.5" y="293.5">+ video_type_id: FK</text></g><path d="M 817 808 L 817 782 L 991 782 L 991 808" fill="#ffffff" stroke="#000000" stroke-width="3" stroke-miterlimit="10" pointer-events="none"/><path d="M 817 808 L 817 938 L 991 938 L 991 808" fill="none" stroke="#000000" stroke-width="3" stroke-miterlimit="10" pointer-events="none"/><path d="M 817 808 L 991 808" fill="none" stroke="#000000" stroke-width="3" stroke-miterlimit="10" pointer-events="none"/><g fill="#000000" font-family="Helvetica" font-weight="bold" text-anchor="middle" font-size="12px"><text x="903.5" y="801.5">Post</text></g><g fill="#000000" font-family="Helvetica" clip-path="url(#mx-clip-821-813-166-26-0)" font-size="12px"><text x="822.5" y="825.5">+ post_id: serial PK</text></g><g fill="#000000" font-family="Helvetica" clip-path="url(#mx-clip-821-839-166-26-0)" font-size="12px"><text x="822.5" y="851.5">+ channel_id: FK cascade</text></g><g fill="#000000" font-family="Helvetica" clip-path="url(#mx-clip-821-865-166-26-0)" font-size="12px"><text x="822.5" y="877.5">+ content_text: text</text></g><g fill="#000000" font-family="Helvetica" clip-path="url(#mx-clip-821-891-166-26-0)" font-size="12px"><text x="822.5" y="903.5">+ created_at : date</text></g><g fill="#000000" font-family="Helvetica" clip-path="url(#mx-clip-821-917-166-26-0)" font-size="12px"><text x="822.5" y="929.5">+ updated_at : date</text></g><path d="M 1038.5 276 L 1038.5 250 L 1218.5 250 L 1218.5 276" fill="#ffffff" stroke="#000000" stroke-miterlimit="10" pointer-events="none"/><path d="M 1038.5 276 L 1038.5 328 L 1218.5 328 L 1218.5 276" fill="none" stroke="#000000" stroke-miterlimit="10" pointer-events="none"/><path d="M 1038.5 276 L 1218.5 276" fill="none" stroke="#000000" stroke-miterlimit="10" pointer-events="none"/><g fill="#000000" font-family="Helvetica" font-weight="bold" text-anchor="middle" font-size="12px"><text x="1128" y="268.5">Video_Type</text></g><g fill="#000000" font-family="Helvetica" clip-path="url(#mx-clip-1043-281-172-26-0)" font-size="12px"><text x="1044" y="293.5">+ video_type_id: serial PK</text></g><g fill="#000000" font-family="Helvetica" clip-path="url(#mx-clip-1043-307-172-26-0)" font-size="12px"><text x="1044" y="319.5">+ video_type_text: varchar(10)</text></g><path d="M 817 438 L 817 412 L 991 412 L 991 438" fill="#ffffff" stroke="#000000" stroke-width="3" stroke-miterlimit="10" pointer-events="none"/><path d="M 817 438 L 817 542 L 991 542 L 991 438" fill="none" stroke="#000000" stroke-width="3" stroke-miterlimit="10" pointer-events="none"/><path d="M 817 438 L 991 438" fill="none" stroke="#000000" stroke-width="3" stroke-miterlimit="10" pointer-events="none"/><g fill="#000000" font-family="Helvetica" font-weight="bold" text-anchor="middle" font-size="12px"><text x="903.5" y="431.5">Comment</text></g><g fill="#000000" font-family="Helvetica" clip-path="url(#mx-clip-821-443-166-26-0)" font-size="12px"><text x="822.5" y="455.5">+ comment_id: serial PK</text></g><path d="M 991 477 L 1015 477 L 1015 451 L 997.37 451" fill="none" stroke="#000000" stroke-miterlimit="10" pointer-events="none"/><path d="M 992.12 451 L 999.12 447.5 L 997.37 451 L 999.12 454.5 Z" fill="#000000" stroke="#000000" stroke-miterlimit="10" pointer-events="none"/><g fill="#000000" font-family="Helvetica" clip-path="url(#mx-clip-821-469-166-26-0)" font-size="12px"><text x="822.5" y="481.5">+ parent_comment_id: FK</text></g><g fill="#000000" font-family="Helvetica" clip-path="url(#mx-clip-821-495-166-26-0)" font-size="12px"><text x="822.5" y="507.5">+ channel_id: FK cascade</text></g><g fill="#000000" font-family="Helvetica" clip-path="url(#mx-clip-821-521-166-26-0)" font-size="12px"><text x="822.5" y="533.5">+ content_text : text</text></g><path d="M 1038.5 94 L 1038.5 68 L 1198.5 68 L 1198.5 94" fill="#ffffff" stroke="#000000" stroke-miterlimit="10" pointer-events="none"/><path d="M 1038.5 94 L 1038.5 146 L 1198.5 146 L 1198.5 94" fill="none" stroke="#000000" stroke-miterlimit="10" pointer-events="none"/><path d="M 1038.5 94 L 1198.5 94" fill="none" stroke="#000000" stroke-miterlimit="10" pointer-events="none"/><g fill="#000000" font-family="Helvetica" font-weight="bold" text-anchor="middle" font-size="12px"><text x="1118" y="86.5">Video_Comment</text></g><g fill="#000000" font-family="Helvetica" clip-path="url(#mx-clip-1043-99-152-26-0)" font-size="12px"><text x="1044" y="111.5">+ video_id: FK</text></g><g fill="#000000" font-family="Helvetica" clip-path="url(#mx-clip-1043-125-152-26-0)" font-size="12px"><text x="1044" y="137.5">+ comment_id: FK</text></g><path d="M 481.5 534 L 481.5 508 L 661.5 508 L 661.5 534" fill="#ffffff" stroke="#000000" stroke-miterlimit="10" pointer-events="none"/><path d="M 481.5 534 L 481.5 586 L 661.5 586 L 661.5 534" fill="none" stroke="#000000" stroke-miterlimit="10" pointer-events="none"/><path d="M 481.5 534 L 661.5 534" fill="none" stroke="#000000" stroke-miterlimit="10" pointer-events="none"/><g fill="#000000" font-family="Helvetica" font-weight="bold" text-anchor="middle" font-size="12px"><text x="571" y="526.5">Channel_Subscriber</text></g><g fill="#000000" font-family="Helvetica" clip-path="url(#mx-clip-486-539-172-26-0)" font-size="12px"><text x="487" y="551.5">+ subscribed_channel_id: FK</text></g><g fill="#000000" font-family="Helvetica" clip-path="url(#mx-clip-486-565-172-26-0)" font-size="12px"><text x="487" y="577.5">+ subscriber_channel_id : FK</text></g><path d="M 481.5 573 L 443 573 L 443 430 L 414.1 430" fill="none" stroke="#000000" stroke-width="3" stroke-miterlimit="10" pointer-events="none"/><path d="M 407.35 430 L 416.35 425.5 L 414.1 430 L 416.35 434.5 Z" fill="#000000" stroke="#000000" stroke-width="3" stroke-miterlimit="10" pointer-events="none"/><path d="M 481.5 547 L 443 547 L 443 430 L 414.1 430" fill="none" stroke="#000000" stroke-width="3" stroke-miterlimit="10" pointer-events="none"/><path d="M 407.35 430 L 416.35 425.5 L 414.1 430 L 416.35 434.5 Z" fill="#000000" stroke="#000000" stroke-width="3" stroke-miterlimit="10" pointer-events="none"/><path d="M 0 417 L 0 391 L 180 391 L 180 417" fill="#ffffff" stroke="#000000" stroke-miterlimit="10" pointer-events="none"/><path d="M 0 417 L 0 573 L 180 573 L 180 417" fill="none" stroke="#000000" stroke-miterlimit="10" pointer-events="none"/><path d="M 0 417 L 180 417" fill="none" stroke="#000000" stroke-miterlimit="10" pointer-events="none"/><g fill="#000000" font-family="Helvetica" font-weight="bold" text-anchor="middle" font-size="12px"><text x="89.5" y="409.5">User</text></g><g fill="#000000" font-family="Helvetica" clip-path="url(#mx-clip-4-422-172-26-0)" font-size="12px"><text x="5.5" y="434.5">+ user_id : serial PK</text></g><g fill="#000000" font-family="Helvetica" clip-path="url(#mx-clip-4-448-172-26-0)" font-size="12px"><text x="5.5" y="460.5">+ user_name : varchar(50) PK</text></g><g fill="#000000" font-family="Helvetica" clip-path="url(#mx-clip-4-474-172-26-0)" font-size="12px"><text x="5.5" y="486.5">+ email : text</text></g><g fill="#000000" font-family="Helvetica" clip-path="url(#mx-clip-4-500-172-26-0)" font-size="12px"><text x="5.5" y="512.5">+ password : text</text></g><g fill="#000000" font-family="Helvetica" clip-path="url(#mx-clip-4-526-172-26-0)" font-size="12px"><text x="5.5" y="538.5">+ created_at : date</text></g><g fill="#000000" font-family="Helvetica" clip-path="url(#mx-clip-4-552-172-26-0)" font-size="12px"><text x="5.5" y="564.5">+ updated_at : date</text></g><path d="M 1038.5 743 L 1038.5 717 L 1198.5 717 L 1198.5 743" fill="#ffffff" stroke="#000000" stroke-miterlimit="10" pointer-events="none"/><path d="M 1038.5 743 L 1038.5 795 L 1198.5 795 L 1198.5 743" fill="none" stroke="#000000" stroke-miterlimit="10" pointer-events="none"/><path d="M 1038.5 743 L 1198.5 743" fill="none" stroke="#000000" stroke-miterlimit="10" pointer-events="none"/><g fill="#000000" font-family="Helvetica" font-weight="bold" text-anchor="middle" font-size="12px"><text x="1118" y="735.5">Post_Comment</text></g><g fill="#000000" font-family="Helvetica" clip-path="url(#mx-clip-1043-748-152-26-0)" font-size="12px"><text x="1044" y="760.5">+ comment_id: FK</text></g><g fill="#000000" font-family="Helvetica" clip-path="url(#mx-clip-1043-774-152-26-0)" font-size="12px"><text x="1044" y="786.5">+ post_id: FK</text></g><path d="M 1038.5 782 L 1015 782 L 1015 821 L 997.37 821" fill="none" stroke="#000000" stroke-miterlimit="10" pointer-events="none"/><path d="M 992.12 821 L 999.12 817.5 L 997.37 821 L 999.12 824.5 Z" fill="#000000" stroke="#000000" stroke-miterlimit="10" pointer-events="none"/><path d="M 1038.5 756 L 1015 756 L 1015 451 L 997.37 451" fill="none" stroke="#000000" stroke-miterlimit="10" pointer-events="none"/><path d="M 992.12 451 L 999.12 447.5 L 997.37 451 L 999.12 454.5 Z" fill="#000000" stroke="#000000" stroke-miterlimit="10" pointer-events="none"/><path d="M 1038.5 107 L 997.37 107" fill="none" stroke="#000000" stroke-miterlimit="10" pointer-events="none"/><path d="M 992.12 107 L 999.12 103.5 L 997.37 107 L 999.12 110.5 Z" fill="#000000" stroke="#000000" stroke-miterlimit="10" pointer-events="none"/><path d="M 481.5 26 L 481.5 0 L 661.5 0 L 661.5 26" fill="#ffffff" stroke="#000000" stroke-miterlimit="10" pointer-events="none"/><path d="M 481.5 26 L 481.5 78 L 661.5 78 L 661.5 26" fill="none" stroke="#000000" stroke-miterlimit="10" pointer-events="none"/><path d="M 481.5 26 L 661.5 26" fill="none" stroke="#000000" stroke-miterlimit="10" pointer-events="none"/><g fill="#000000" font-family="Helvetica" font-weight="bold" text-anchor="middle" font-size="12px"><text x="571" y="18.5">Video_Likes</text></g><g fill="#000000" font-family="Helvetica" clip-path="url(#mx-clip-486-31-172-26-0)" font-size="12px"><text x="487" y="43.5">+ channel_id: FK</text></g><g fill="#000000" font-family="Helvetica" clip-path="url(#mx-clip-486-57-172-26-0)" font-size="12px"><text x="487" y="69.5">+ video_id: FK</text></g><path d="M 661.5 65 L 739 65 L 739 107 L 810.63 107" fill="none" stroke="#000000" stroke-miterlimit="10" pointer-events="none"/><path d="M 815.88 107 L 808.88 110.5 L 810.63 107 L 808.88 103.5 Z" fill="#000000" stroke="#000000" stroke-miterlimit="10" pointer-events="none"/><path d="M 481.5 136 L 481.5 110 L 661.5 110 L 661.5 136" fill="#ffffff" stroke="#000000" stroke-miterlimit="10" pointer-events="none"/><path d="M 481.5 136 L 481.5 188 L 661.5 188 L 661.5 136" fill="none" stroke="#000000" stroke-miterlimit="10" pointer-events="none"/><path d="M 481.5 136 L 661.5 136" fill="none" stroke="#000000" stroke-miterlimit="10" pointer-events="none"/><g fill="#000000" font-family="Helvetica" font-weight="bold" text-anchor="middle" font-size="12px"><text x="571" y="128.5">Video_Dislikes</text></g><g fill="#000000" font-family="Helvetica" clip-path="url(#mx-clip-486-141-172-26-0)" font-size="12px"><text x="487" y="153.5">+ channel_id: FK</text></g><g fill="#000000" font-family="Helvetica" clip-path="url(#mx-clip-486-167-172-26-0)" font-size="12px"><text x="487" y="179.5">+ video_id: FK</text></g><path d="M 661.5 175 L 739 175 L 739 107 L 810.63 107" fill="none" stroke="#000000" stroke-miterlimit="10" pointer-events="none"/><path d="M 815.88 107 L 808.88 110.5 L 810.63 107 L 808.88 103.5 Z" fill="#000000" stroke="#000000" stroke-miterlimit="10" pointer-events="none"/><path d="M 481.5 149 L 443 149 L 443 430 L 414.1 430" fill="none" stroke="#000000" stroke-width="3" stroke-miterlimit="10" pointer-events="none"/><path d="M 407.35 430 L 416.35 425.5 L 414.1 430 L 416.35 434.5 Z" fill="#000000" stroke="#000000" stroke-width="3" stroke-miterlimit="10" pointer-events="none"/><path d="M 481.5 39 L 443 39 L 443 430 L 414.1 430" fill="none" stroke="#000000" stroke-width="3" stroke-miterlimit="10" pointer-events="none"/><path d="M 407.35 430 L 416.35 425.5 L 414.1 430 L 416.35 434.5 Z" fill="#000000" stroke="#000000" stroke-width="3" stroke-miterlimit="10" pointer-events="none"/><path d="M 481.5 782 L 481.5 756 L 661.5 756 L 661.5 782" fill="#ffffff" stroke="#000000" stroke-miterlimit="10" pointer-events="none"/><path d="M 481.5 782 L 481.5 834 L 661.5 834 L 661.5 782" fill="none" stroke="#000000" stroke-miterlimit="10" pointer-events="none"/><path d="M 481.5 782 L 661.5 782" fill="none" stroke="#000000" stroke-miterlimit="10" pointer-events="none"/><g fill="#000000" font-family="Helvetica" font-weight="bold" text-anchor="middle" font-size="12px"><text x="571" y="774.5">Post_Likes</text></g><g fill="#000000" font-family="Helvetica" clip-path="url(#mx-clip-486-787-172-26-0)" font-size="12px"><text x="487" y="799.5">+ channel_id: FK</text></g><g fill="#000000" font-family="Helvetica" clip-path="url(#mx-clip-486-813-172-26-0)" font-size="12px"><text x="487" y="825.5">+ post_id: FK</text></g><path d="M 481.5 891 L 481.5 865 L 661.5 865 L 661.5 891" fill="#ffffff" stroke="#000000" stroke-miterlimit="10" pointer-events="none"/><path d="M 481.5 891 L 481.5 943 L 661.5 943 L 661.5 891" fill="none" stroke="#000000" stroke-miterlimit="10" pointer-events="none"/><path d="M 481.5 891 L 661.5 891" fill="none" stroke="#000000" stroke-miterlimit="10" pointer-events="none"/><g fill="#000000" font-family="Helvetica" font-weight="bold" text-anchor="middle" font-size="12px"><text x="571" y="883.5">Post_Dislikes</text></g><g fill="#000000" font-family="Helvetica" clip-path="url(#mx-clip-486-896-172-26-0)" font-size="12px"><text x="487" y="908.5">+ channel_id: FK</text></g><g fill="#000000" font-family="Helvetica" clip-path="url(#mx-clip-486-922-172-26-0)" font-size="12px"><text x="487" y="934.5">+ post_id: FK</text></g><path d="M 661.5 930 L 739 930 L 739 821 L 810.63 821" fill="none" stroke="#000000" stroke-miterlimit="10" pointer-events="none"/><path d="M 815.88 821 L 808.88 824.5 L 810.63 821 L 808.88 817.5 Z" fill="#000000" stroke="#000000" stroke-miterlimit="10" pointer-events="none"/><path d="M 661.5 821 L 810.63 821" fill="none" stroke="#000000" stroke-miterlimit="10" pointer-events="none"/><path d="M 815.88 821 L 808.88 824.5 L 810.63 821 L 808.88 817.5 Z" fill="#000000" stroke="#000000" stroke-miterlimit="10" pointer-events="none"/><path d="M 481.5 904 L 443 904 L 443 430 L 414.1 430" fill="none" stroke="#000000" stroke-width="3" stroke-miterlimit="10" pointer-events="none"/><path d="M 407.35 430 L 416.35 425.5 L 414.1 430 L 416.35 434.5 Z" fill="#000000" stroke="#000000" stroke-width="3" stroke-miterlimit="10" pointer-events="none"/><path d="M 481.5 795 L 443 795 L 443 430 L 414.1 430" fill="none" stroke="#000000" stroke-width="3" stroke-miterlimit="10" pointer-events="none"/><path d="M 407.35 430 L 416.35 425.5 L 414.1 430 L 416.35 434.5 Z" fill="#000000" stroke="#000000" stroke-width="3" stroke-miterlimit="10" pointer-events="none"/><path d="M 1038.5 133 L 1015 133 L 1015 451 L 997.37 451" fill="none" stroke="#000000" stroke-miterlimit="10" pointer-events="none"/><path d="M 992.12 451 L 999.12 447.5 L 997.37 451 L 999.12 454.5 Z" fill="#000000" stroke="#000000" stroke-miterlimit="10" pointer-events="none"/><path d="M 817 607 L 817 581 L 991 581 L 991 607" fill="#ffffff" stroke="#000000" stroke-width="3" stroke-miterlimit="10" pointer-events="none"/><path d="M 817 607 L 817 737 L 991 737 L 991 607" fill="none" stroke="#000000" stroke-width="3" stroke-miterlimit="10" pointer-events="none"/><path d="M 817 607 L 991 607" fill="none" stroke="#000000" stroke-width="3" stroke-miterlimit="10" pointer-events="none"/><g fill="#000000" font-family="Helvetica" font-weight="bold" text-anchor="middle" font-size="12px"><text x="903.5" y="600.5">Image</text></g><g fill="#000000" font-family="Helvetica" clip-path="url(#mx-clip-821-612-166-26-0)" font-size="12px"><text x="822.5" y="624.5">+ image_id: serial PK</text></g><g fill="#000000" font-family="Helvetica" clip-path="url(#mx-clip-821-638-166-26-0)" font-size="12px"><text x="822.5" y="650.5">+ channel_id: FK cascade</text></g><g fill="#000000" font-family="Helvetica" clip-path="url(#mx-clip-821-664-166-26-0)" font-size="12px"><text x="822.5" y="676.5">+ source: string</text></g><g fill="#000000" font-family="Helvetica" clip-path="url(#mx-clip-821-690-166-26-0)" font-size="12px"><text x="822.5" y="702.5">+ created_at: date</text></g><g fill="#000000" font-family="Helvetica" clip-path="url(#mx-clip-821-716-166-26-0)" font-size="12px"><text x="822.5" y="728.5">+ updated_at: date</text></g><path d="M 481.5 237 L 481.5 211 L 661.5 211 L 661.5 237" fill="#ffffff" stroke="#000000" stroke-miterlimit="10" pointer-events="none"/><path d="M 481.5 237 L 481.5 289 L 661.5 289 L 661.5 237" fill="none" stroke="#000000" stroke-miterlimit="10" pointer-events="none"/><path d="M 481.5 237 L 661.5 237" fill="none" stroke="#000000" stroke-miterlimit="10" pointer-events="none"/><g fill="#000000" font-family="Helvetica" font-weight="bold" text-anchor="middle" font-size="12px"><text x="571" y="229.5">Comment_Likes</text></g><g fill="#000000" font-family="Helvetica" clip-path="url(#mx-clip-486-242-172-26-0)" font-size="12px"><text x="487" y="254.5">+ channel_id: FK</text></g><g fill="#000000" font-family="Helvetica" clip-path="url(#mx-clip-486-268-172-26-0)" font-size="12px"><text x="487" y="280.5">+ comment_id: FK</text></g><path d="M 481.5 338 L 481.5 312 L 661.5 312 L 661.5 338" fill="#ffffff" stroke="#000000" stroke-miterlimit="10" pointer-events="none"/><path d="M 481.5 338 L 481.5 390 L 661.5 390 L 661.5 338" fill="none" stroke="#000000" stroke-miterlimit="10" pointer-events="none"/><path d="M 481.5 338 L 661.5 338" fill="none" stroke="#000000" stroke-miterlimit="10" pointer-events="none"/><g fill="#000000" font-family="Helvetica" font-weight="bold" text-anchor="middle" font-size="12px"><text x="571" y="330.5">Comment_Dislikes</text></g><g fill="#000000" font-family="Helvetica" clip-path="url(#mx-clip-486-343-172-26-0)" font-size="12px"><text x="487" y="355.5">+ channel_id: FK</text></g><g fill="#000000" font-family="Helvetica" clip-path="url(#mx-clip-486-369-172-26-0)" font-size="12px"><text x="487" y="381.5">+ comment_id: FK</text></g><path d="M 661.5 276 L 684 276 L 684 451 L 810.63 451" fill="none" stroke="#000000" stroke-miterlimit="10" pointer-events="none"/><path d="M 815.88 451 L 808.88 454.5 L 810.63 451 L 808.88 447.5 Z" fill="#000000" stroke="#000000" stroke-miterlimit="10" pointer-events="none"/><path d="M 661.5 377 L 684 377 L 684 451 L 810.63 451" fill="none" stroke="#000000" stroke-miterlimit="10" pointer-events="none"/><path d="M 815.88 451 L 808.88 454.5 L 810.63 451 L 808.88 447.5 Z" fill="#000000" stroke="#000000" stroke-miterlimit="10" pointer-events="none"/><path d="M 481.5 250 L 443 250 L 443 430 L 414.1 430" fill="none" stroke="#000000" stroke-width="3" stroke-miterlimit="10" pointer-events="none"/><path d="M 407.35 430 L 416.35 425.5 L 414.1 430 L 416.35 434.5 Z" fill="#000000" stroke="#000000" stroke-width="3" stroke-miterlimit="10" pointer-events="none"/><path d="M 481.5 351 L 443 351 L 443 430 L 414.1 430" fill="none" stroke="#000000" stroke-width="3" stroke-miterlimit="10" pointer-events="none"/><path d="M 407.35 430 L 416.35 425.5 L 414.1 430 L 416.35 434.5 Z" fill="#000000" stroke="#000000" stroke-width="3" stroke-miterlimit="10" pointer-events="none"/><path d="M 1038.5 607 L 1038.5 581 L 1198.5 581 L 1198.5 607" fill="#ffffff" stroke="#000000" stroke-miterlimit="10" pointer-events="none"/><path d="M 1038.5 607 L 1038.5 659 L 1198.5 659 L 1198.5 607" fill="none" stroke="#000000" stroke-miterlimit="10" pointer-events="none"/><path d="M 1038.5 607 L 1198.5 607" fill="none" stroke="#000000" stroke-miterlimit="10" pointer-events="none"/><g fill="#000000" font-family="Helvetica" font-weight="bold" text-anchor="middle" font-size="12px"><text x="1118" y="599.5">Post_Image</text></g><g fill="#000000" font-family="Helvetica" clip-path="url(#mx-clip-1043-612-152-26-0)" font-size="12px"><text x="1044" y="624.5">+ image_id: FK</text></g><g fill="#000000" font-family="Helvetica" clip-path="url(#mx-clip-1043-638-152-26-0)" font-size="12px"><text x="1044" y="650.5">+ post_id: FK</text></g><path d="M 1038.5 620 L 999.24 620" fill="none" stroke="#000000" stroke-width="2" stroke-miterlimit="10" pointer-events="none"/><path d="M 993.24 620 L 1001.24 616 L 999.24 620 L 1001.24 624 Z" fill="#000000" stroke="#000000" stroke-width="2" stroke-miterlimit="10" pointer-events="none"/><path d="M 1198.5 646 L 1215 646 L 1215 821 L 997.37 821" fill="none" stroke="#000000" stroke-miterlimit="10" pointer-events="none"/><path d="M 992.12 821 L 999.12 817.5 L 997.37 821 L 999.12 824.5 Z" fill="#000000" stroke="#000000" stroke-miterlimit="10" pointer-events="none"/><path d="M 224 456 L 202 456 L 202 430 L 186.37 430" fill="none" stroke="#000000" stroke-miterlimit="10" pointer-events="none"/><path d="M 181.12 430 L 188.12 426.5 L 186.37 430 L 188.12 433.5 Z" fill="#000000" stroke="#000000" stroke-miterlimit="10" pointer-events="none"/><path d="M 991 289 L 1030.26 289" fill="none" stroke="#000000" stroke-width="2" stroke-miterlimit="10" pointer-events="none"/><path d="M 1036.26 289 L 1028.26 293 L 1030.26 289 L 1028.26 285 Z" fill="#000000" stroke="#000000" stroke-width="2" stroke-miterlimit="10" pointer-events="none"/><path d="M 817 133 L 762 133 L 762 430 L 414.1 430" fill="none" stroke="#000000" stroke-width="3" stroke-miterlimit="10" pointer-events="none"/><path d="M 407.35 430 L 416.35 425.5 L 414.1 430 L 416.35 434.5 Z" fill="#000000" stroke="#000000" stroke-width="3" stroke-miterlimit="10" pointer-events="none"/><path d="M 817 847 L 762 847 L 762 430 L 414.1 430" fill="none" stroke="#000000" stroke-width="3" stroke-miterlimit="10" pointer-events="none"/><path d="M 407.35 430 L 416.35 425.5 L 414.1 430 L 416.35 434.5 Z" fill="#000000" stroke="#000000" stroke-width="3" stroke-miterlimit="10" pointer-events="none"/><path d="M 817 646 L 762 646 L 762 430 L 414.1 430" fill="none" stroke="#000000" stroke-width="3" stroke-miterlimit="10" pointer-events="none"/><path d="M 407.35 430 L 416.35 425.5 L 414.1 430 L 416.35 434.5 Z" fill="#000000" stroke="#000000" stroke-width="3" stroke-miterlimit="10" pointer-events="none"/><path d="M 661.5 65 L 739 65 L 739 107 L 810.63 107" fill="none" stroke="#000000" stroke-miterlimit="10" pointer-events="none"/><path d="M 815.88 107 L 808.88 110.5 L 810.63 107 L 808.88 103.5 Z" fill="#000000" stroke="#000000" stroke-miterlimit="10" pointer-events="none"/><path d="M 817 503 L 762 503 L 762 430 L 414.1 430" fill="none" stroke="#000000" stroke-width="3" stroke-miterlimit="10" pointer-events="none"/><path d="M 407.35 430 L 416.35 425.5 L 414.1 430 L 416.35 434.5 Z" fill="#000000" stroke="#000000" stroke-width="3" stroke-miterlimit="10" pointer-events="none"/></g></svg>